<svg width="20" height="20" viewBox="0 0 20 20" xmlns="http://www.w3.org/2000/svg">
  <defs><radialGradient id="e" cx="35%" cy="25%"><stop stop-color="#e0efa3"/><stop offset=".48" stop-color="#9daf42"/><stop offset="1" stop-color="#596d27"/></radialGradient></defs>
  <circle cx="10" cy="10" r="9.3" fill="#354019"/><circle cx="10" cy="10" r="8.2" fill="url(#e)" stroke="#f1fac8" stroke-width=".65"/>
  <path d="m6 4.4 2.2 2.1c.5-.3 1-.5 1.8-.5s1.4.2 1.9.5L14 4.4l1 1-2.1 2.1c.5.7.8 1.5.8 2.5v4.7c-1 .9-2.2 1.3-3.7 1.3s-2.7-.4-3.7-1.3V10c0-1 .3-1.8.8-2.5L5 5.4zm1.7 5.1h4.6V8.4H7.7zm0 2.2h4.6v-1.1H7.7z" fill="#293314"/>
</svg>
