<svg width="20" height="20" viewBox="0 0 20 20" xmlns="http://www.w3.org/2000/svg">
  <defs><radialGradient id="e" cx="35%" cy="25%"><stop stop-color="#ded0ff"/><stop offset=".48" stop-color="#8d6fc5"/><stop offset="1" stop-color="#473374"/></radialGradient></defs>
  <circle cx="10" cy="10" r="9.3" fill="#2e2148"/><circle cx="10" cy="10" r="8.2" fill="url(#e)" stroke="#f0e9ff" stroke-width=".65"/>
  <path d="M5.3 15.4c.6-4.5 2.1-7.1 4.5-7.7L8.2 4.2c2.6.5 4.5 1.8 5.8 3.9-1.1-.4-2.2-.5-3.2-.2 2.5 1 3.9 2.8 4.2 5.4-1-.8-2-1.2-3.1-1.3.7 1.1.7 2.4.2 3.8-1.1-1.2-2.2-1.8-3.3-2-1.1-.2-2.3.3-3.5 1.6z" fill="#241936"/><circle cx="11.5" cy="9.8" r=".8" fill="#f3dc67"/>
</svg>
