<svg width="20" height="20" viewBox="0 0 20 20" xmlns="http://www.w3.org/2000/svg">
  <defs><radialGradient id="e" cx="35%" cy="25%"><stop stop-color="#ffeaf4"/><stop offset=".48" stop-color="#e69abb"/><stop offset="1" stop-color="#9d557b"/></radialGradient></defs>
  <circle cx="10" cy="10" r="9.3" fill="#60364c"/><circle cx="10" cy="10" r="8.2" fill="url(#e)" stroke="#fff2f8" stroke-width=".65"/>
  <path d="M10 3.3c.5 3.1 1.4 4.9 2.8 5.5 1.1.5 2.5.5 4.1.1-2.4 1.6-3.5 3.1-3.3 4.6.1.9.7 1.9 1.7 3-2.4-1.5-4.2-2.1-5.3-1.8-1.1-.3-2.9.3-5.3 1.8 1-1.1 1.6-2.1 1.7-3 .2-1.5-.9-3-3.3-4.6 1.6.4 3 .4 4.1-.1C8.6 8.2 9.5 6.4 10 3.3z" fill="#5d334a"/><circle cx="10" cy="11.2" r="2.1" fill="#fff1f7"/>
</svg>
