<svg width="20" height="20" viewBox="0 0 20 20" xmlns="http://www.w3.org/2000/svg">
  <defs><radialGradient id="e" cx="35%" cy="25%"><stop stop-color="#ffd3a2"/><stop offset=".48" stop-color="#f46b37"/><stop offset="1" stop-color="#9f241c"/></radialGradient></defs>
  <circle cx="10" cy="10" r="9.3" fill="#382015"/><circle cx="10" cy="10" r="8.2" fill="url(#e)" stroke="#fff6d8" stroke-width=".65"/>
  <path d="M11.4 3.3c.5 2.8-1.7 3.4-1.4 5.5.8-.5 1.2-1.4 1.3-2.3 2.3 1.9 3.6 4.1 2.5 6.7-1.5 3.7-6.6 3.8-8 0-1-2.7.7-4.7 2.8-6.5-.1 1.7.4 2.7 1.1 3.2-.3-2.8 1.7-4.1 1.7-6.6z" fill="#25150f"/>
  <path d="M9.8 11.1c1.2 1 .9 2.1.1 3-.9-.5-1.3-1.7-.1-3z" fill="#ffd89b"/>
</svg>
