<svg width="20" height="20" viewBox="0 0 20 20" xmlns="http://www.w3.org/2000/svg">
  <defs><radialGradient id="e" cx="35%" cy="25%"><stop stop-color="#fff"/><stop offset=".52" stop-color="#deded8"/><stop offset="1" stop-color="#92938f"/></radialGradient></defs>
  <circle cx="10" cy="10" r="9.3" fill="#4a4b48"/><circle cx="10" cy="10" r="8.2" fill="url(#e)" stroke="#fff" stroke-width=".65"/>
  <path d="M3.8 11.2c2.1-.2 2.7-1.3 2.1-3.3 1.5 1.4 2.9 1.2 4.1-.6.1 2 1.2 2.7 3.4 2.1-1.6 1.4-1.4 2.8.4 4-2.1-.1-2.9 1-2.3 3-1.5-1.5-2.9-1.3-4.1.4 0-2-1.1-2.8-3.2-2.1 1.5-1.2 1.4-2.4-.4-3.5z" fill="#4b4c49"/>
  <circle cx="9.1" cy="12" r="2.25" fill="#f7f7f2" stroke="#4b4c49" stroke-width="1.1"/>
</svg>
