<svg width="20" height="20" viewBox="0 0 20 20" xmlns="http://www.w3.org/2000/svg">
  <defs><radialGradient id="e" cx="35%" cy="25%"><stop stop-color="#e5b7f4"/><stop offset=".48" stop-color="#9c5cbb"/><stop offset="1" stop-color="#512d68"/></radialGradient></defs>
  <circle cx="10" cy="10" r="9.3" fill="#321b41"/><circle cx="10" cy="10" r="8.2" fill="url(#e)" stroke="#f4ddff" stroke-width=".65"/>
  <path d="M4.1 11.1c.4-4.2 2.5-6.4 5.9-6.4s5.5 2.2 5.9 6.4c-.9-.7-1.8-.8-2.8-.2-.8.5-1.6.5-2.4 0-.7-.4-1.4-.4-2.1 0-.9.6-1.7.6-2.6 0-.6-.3-1.2-.3-1.9.2zm1.2 2c1 .5 1.9.5 2.8 0 .9-.5 1.7-.5 2.5 0 .9.5 1.7.5 2.6 0 .5-.3 1-.4 1.6-.2-.7 2.2-2.3 3.3-4.8 3.3s-4-1-4.7-3.1z" fill="#26152f"/>
</svg>
