<svg width="20" height="20" viewBox="0 0 20 20" xmlns="http://www.w3.org/2000/svg">
  <defs><radialGradient id="e" cx="35%" cy="25%"><stop stop-color="#ffc4eb"/><stop offset=".48" stop-color="#cf62b8"/><stop offset="1" stop-color="#71336f"/></radialGradient></defs>
  <circle cx="10" cy="10" r="9.3" fill="#412044"/><circle cx="10" cy="10" r="8.2" fill="url(#e)" stroke="#ffe5f7" stroke-width=".65"/>
  <path d="M10.1 3.6c4.7 0 6.5 5.6 3.2 8.3-2.5 2.1-6.7.4-5.6-2.6.7-1.9 3.6-1.6 3.8.1.1 1-1.1 1.6-1.8 1-.8-.7-.2-2 1-2 1.6 0 2.7 1.8 1.8 3.1-1 1.5-3.9 1.3-5.1-.2-1.9-2.4-.4-6.2 2.8-6.6-2.7 1.4-2.3 5.6.5 6.5 3 .9 5.5-2.3 3.8-5-1-1.6-2.7-2.2-4.4-2.1z" fill="#351638"/>
</svg>
